<svg width="24" height="30" viewBox="0 0 24 30" fill="none" xmlns="http://www.w3.org/2000/svg">
<g id="&#227;&#130;&#176;&#227;&#131;&#171;&#227;&#131;&#188;&#227;&#131;&#151; 25" clip-path="url(#clip0_40369_393)">
<path id="&#227;&#131;&#145;&#227;&#130;&#185; 31" d="M7.25226 13.468L6.44 14.0223C6.95929 14.7839 7.62188 15.4266 8.38092 15.9232L8.91901 15.0993C8.26667 14.6732 7.69831 14.1201 7.25226 13.468Z" fill="#FF963C"/>
<path id="&#227;&#131;&#145;&#227;&#130;&#185; 32" d="M10.7857 4.71515C11.1977 4.62921 11.6062 4.58795 12.01 4.58795C12.3806 4.58795 12.7466 4.62213 13.1032 4.68915L13.2845 3.7229C12.8679 3.64532 12.4419 3.604 12.01 3.604C11.5402 3.604 11.0623 3.65228 10.5858 3.75116L10.567 3.75592L10.7695 4.71747L10.7857 4.71515Z" fill="#FF963C"/>
<path id="&#227;&#131;&#145;&#227;&#130;&#185; 33" d="M8.81811 5.46692L8.26245 4.65601C7.5022 5.17615 6.85962 5.83887 6.36401 6.59803L7.18798 7.13587C7.61278 6.48377 8.16601 5.91297 8.81811 5.46692Z" fill="#FF963C"/>
<path id="&#227;&#131;&#145;&#227;&#130;&#185; 34" d="M6.2739 10.2433C6.2739 9.87139 6.30906 9.50421 6.37619 9.1452L5.41013 8.96399C5.33103 9.38178 5.29001 9.80908 5.29001 10.2433C5.29001 10.7141 5.33811 11.1908 5.4382 11.6686L5.44064 11.6804L6.40329 11.4791L6.40085 11.4686C6.31491 11.0566 6.2739 10.647 6.2739 10.2433V10.2433Z" fill="#FF963C"/>
<path id="&#227;&#131;&#145;&#227;&#130;&#185; 35" d="M13.2145 15.8912C12.8024 15.9772 12.3939 16.0183 11.9904 16.0183C11.6161 16.0183 11.2465 15.9831 10.8864 15.9147L10.704 16.881C11.123 16.9599 11.5539 17.0011 11.9904 17.0011C12.4599 17.0011 12.9367 16.9528 13.4145 16.854L13.4203 16.8527L13.2201 15.89L13.2145 15.8912Z" fill="#FF963C"/>
<path id="&#227;&#131;&#145;&#227;&#130;&#185; 36" d="M18.5614 8.83667L18.5568 8.81299L17.594 9.0166L17.5986 9.03784C17.6846 9.44861 17.7258 9.85815 17.7258 10.2618C17.7258 10.6385 17.6893 11.0093 17.621 11.3706L18.5874 11.5542C18.6674 11.1328 18.7085 10.7008 18.7085 10.2618C18.7085 9.79223 18.6616 9.31444 18.5614 8.83666V8.83667Z" fill="#FF963C"/>
<path id="&#227;&#131;&#145;&#227;&#130;&#185; 37" d="M15.173 15.0415L15.7273 15.8536C16.4888 15.3346 17.1326 14.672 17.6292 13.9139L16.8066 13.375C16.3793 14.027 15.8262 14.5956 15.173 15.0415L15.173 15.0415Z" fill="#FF963C"/>
<path id="&#227;&#131;&#145;&#227;&#130;&#185; 38" d="M16.742 7.02493L17.5531 6.46933C17.0317 5.70902 16.3678 5.06638 15.6086 4.57199L15.072 5.3959C15.7252 5.82083 16.2949 6.37277 16.742 7.02493Z" fill="#FF963C"/>
<path id="&#227;&#131;&#145;&#227;&#130;&#185; 39" d="M15.3721 9.13995L13.0416 8.80145L11.9996 6.69L10.9576 8.80145L8.62701 9.13995L10.3133 10.7838L9.91534 13.1044L11.9996 12.0087L14.0838 13.1044L13.6859 10.7838L15.3721 9.13995Z" fill="#FF963C"/>
<path id="&#227;&#131;&#145;&#227;&#130;&#185; 40" fill-rule="evenodd" clip-rule="evenodd" d="M22.1129 10.5726C22.1129 7.65613 20.9791 5.00561 19.1522 3.09534C18.1625 2.06079 16.9658 1.23926 15.634 0.70374C14.5047 0.2483 13.2798 0 12.001 0C10.712 0 9.47467 0.25293 8.33881 0.71558C7.01715 1.2522 5.83173 2.06787 4.84894 3.09534C3.02179 5.00562 1.888 7.65613 1.888 10.5726C1.888 13.4879 3.02179 16.1361 4.84894 18.0463C6.67609 19.9589 9.21124 21.144 12.001 21.144C14.7896 21.144 17.3249 19.9589 19.1522 18.0463C20.9791 16.1361 22.1129 13.4879 22.1129 10.5726ZM12.001 19.1774C9.72466 19.1774 7.67352 18.217 6.17962 16.6575C4.68902 15.0957 3.76934 12.9524 3.76934 10.5726C3.76934 8.19287 4.68902 6.04602 6.17962 4.48767C7.15337 3.47192 8.36236 2.70935 9.71905 2.3009C10.4417 2.08557 11.2084 1.96789 12.001 1.96789C12.7812 1.96789 13.5366 2.07958 14.2514 2.29382C15.6193 2.69751 16.8406 3.46496 17.8214 4.48767C19.312 6.04602 20.2316 8.19287 20.2316 10.5726C20.2316 12.9524 19.312 15.0957 17.8214 16.6575C16.3273 18.217 14.2774 19.1774 12.001 19.1774H12.001Z" fill="#FF963C"/>
<path id="&#227;&#131;&#145;&#227;&#130;&#185; 41" d="M4.73693 19.2418C4.5841 19.1181 4.42992 18.9957 4.28161 18.8639L4.28051 18.8675L4.26867 18.858L0.60461 26.7048L0.5 26.9861L0.63892 27.2061C0.73902 27.3592 0.90125 27.4499 1.08265 27.4499H1.16847L4.67006 26.3612L6.05519 29.6755C6.14125 29.8708 6.32704 30.0003 6.54262 30.0003C6.74733 30.0003 6.93337 29.8803 7.01918 29.6943L9.85341 23.6259L10.6901 21.8429L10.6867 21.8416L10.6925 21.8275C8.46107 21.5097 6.4225 20.587 4.73695 19.2418L4.73693 19.2418Z" fill="#FF963C"/>
<path id="&#227;&#131;&#145;&#227;&#130;&#185; 42" d="M20.5542 20.6375L19.7315 18.8686L19.7281 18.8709L19.7222 18.858C18.0745 20.3092 16.0335 21.3249 13.7903 21.7357C13.6324 21.764 13.4761 21.7958 13.3159 21.8169L13.3172 21.8204L13.303 21.824L16.9763 29.6943C17.062 29.8814 17.2481 30.0003 17.4529 30.0003C17.6685 30.0003 17.8543 29.8708 17.9402 29.6755L19.3255 26.3612L22.7598 27.4262L22.8408 27.4499H22.9129C23.094 27.4499 23.2564 27.3592 23.3565 27.2062L23.5003 26.9391L20.5542 20.6375Z" fill="#FF963C"/>
</g>
<defs>
<clipPath id="clip0_40369_393">
<rect width="23.0002" height="30.0003" fill="white" transform="translate(0.5)"/>
</clipPath>
</defs>
</svg>
